# xmcd
#
# Track frame offsets:
#	150
#	18617
#	45677
#	63370
#	87895
#	102978
#	121124
#	131786
#	140752
#	154901
#	171346
#	187672
#	211795
#	230013
#	251517
#	272678
#	287448
#	299334
#
# Disc length: 4237 seconds
#
# Revision: 1
# Processed by: cddbd v1.4PL0 Copyright (c) Steve Scherf et al.
# Submitted via: audiograbber 1.80
#
DISCID=07108b12
DTITLE=Novo artista (148) - Novo título (148)
DYEAR=1900
DGENRE=
TTITLE0=Faixa 01
TTITLE1=Gabriel o Pensador Pra onde vai
TTITLE2=Faixa 03
TTITLE3=Faixa 04
TTITLE4=Faixa 05
TTITLE5=Faixa 06
TTITLE6=Faixa 07
TTITLE7=Faixa 08
TTITLE8=Refazenda
TTITLE9=Faixa 10
TTITLE10=Faixa 11
TTITLE11=Faixa 12
TTITLE12=Faixa 13
TTITLE13=Chão de Giz
TTITLE14=Faixa 15
TTITLE15=Faixa 16
TTITLE16=Faixa 17
TTITLE17=Faixa 18
EXTD=
EXTT0=
EXTT1=
EXTT2=
EXTT3=
EXTT4=
EXTT5=
EXTT6=
EXTT7=
EXTT8=
EXTT9=
EXTT10=
EXTT11=
EXTT12=
EXTT13=
EXTT14=
EXTT15=
EXTT16=
EXTT17=
PLAYORDER=
